<svg xmlns="http://www.w3.org/2000/svg" xmlns:xlink="http://www.w3.org/1999/xlink" width="43.126" height="37.47" viewBox="0 0 43.126 37.47">
  <defs>
    <filter id="Trazado_880767" x="-2.227" y="-6" width="54.353" height="54" filterUnits="userSpaceOnUse">
      <feOffset dy="3" input="SourceAlpha"/>
      <feGaussianBlur stdDeviation="3" result="blur"/>
      <feFlood flood-opacity="0.161"/>
      <feComposite operator="in" in2="blur"/>
      <feComposite in="SourceGraphic"/>
    </filter>
    <clipPath id="clip-path">
      <g transform="matrix(1, 0, 0, 1, 0, 0)" filter="url(#Trazado_880767)">
        <path id="Trazado_880767-2" data-name="Trazado 880767" d="M136.934,89.658c-.027-13.907,4.5-18.84,16.158-20.562s19.7,4.794,20.147,15.9-2.036,18.677-16.89,19.749c-11.88.858-19.4-5.8-19.415-15.089" transform="translate(196.71 965.82)" fill="#aed139"/>
      </g>
    </clipPath>
    <filter id="Trazado_880157" x="-2.227" y="-6" width="54.353" height="54" filterUnits="userSpaceOnUse">
      <feOffset dy="3" input="SourceAlpha"/>
      <feGaussianBlur stdDeviation="3" result="blur-2"/>
      <feFlood flood-opacity="0.161"/>
      <feComposite operator="in" in2="blur-2"/>
      <feComposite in="SourceGraphic"/>
    </filter>
  </defs>
  <g id="Grupo_1103389" data-name="Grupo 1103389" transform="translate(-285 -1184.647)">
    <g id="Grupo_1101943" data-name="Grupo 1101943" transform="translate(-41.874 150.004)">
      <g id="Enmascarar_grupo_1098892" data-name="Enmascarar grupo 1098892" clip-path="url(#clip-path)">
        <g transform="matrix(1, 0, 0, 1, 326.87, 1034.64)" filter="url(#Trazado_880157)">
          <path id="Trazado_880157-2" data-name="Trazado 880157" d="M136.934,89.658c-.027-13.907,4.5-18.84,16.158-20.562s19.7,4.794,20.147,15.9-2.036,18.677-16.89,19.749c-11.88.858-19.4-5.8-19.415-15.089" transform="translate(-130.16 -68.82)" fill="#59b4f1"/>
        </g>
        <path id="Trazado_880764" data-name="Trazado 880764" d="M73.213,89.766c-.106-.8-.224-1.65-.328-2.5-.077-.614-.09-1.236-.211-1.841a4.441,4.441,0,0,0-1.42-2.1,35.016,35.016,0,0,1-3.025-3.145c-1.163-1.575-2.069-3.335-3.143-4.977a10.522,10.522,0,0,1-1.639-5.781,13.259,13.259,0,0,1,.777-4.794,3.549,3.549,0,0,1,4.926-2.025A7.809,7.809,0,0,1,72.1,64.834a32.161,32.161,0,0,1,4.163,6.559,11.88,11.88,0,0,1,.968,4.267,20.692,20.692,0,0,1-.274,5.347,26.725,26.725,0,0,1-1.009,3.705,9.022,9.022,0,0,0,.046,5.9A24.883,24.883,0,0,1,77.1,93.753a23.005,23.005,0,0,0,1.411,4.28c.7,1.763,1.6,3.448,2.328,5.2.357.856.911,1.711.452,2.748-.107.244.083.616.129.93.086.57-.141.989-.623,1.089-.518.109-.795-.217-.908-.651a5.526,5.526,0,0,0-1.277-2.1,11.532,11.532,0,0,1-2.31-4.745c-.167-.689-.3-1.437-1.086-1.719a7.522,7.522,0,0,0-4.482-.574c-1.815.449-3.679.7-5.528,1.02-1.274.217-2.553.426-3.837.584-2.9.357-5.81.721-8.723,1a21.05,21.05,0,0,1-6.07-.077,9.686,9.686,0,0,1-2.1-.633,3.677,3.677,0,0,1-1.8-2.242,7.9,7.9,0,0,1-.515-3.207,3.547,3.547,0,0,1,2.785-3.5,9.755,9.755,0,0,1,4.681-.466,22.8,22.8,0,0,1,4.119,1.336,18.92,18.92,0,0,0,6.395,1.645c1.4.06,2.8.012,4.2.023.532.006,1.063.034,1.595.054,1.555.06,3.119.043,4.662.205A11.9,11.9,0,0,1,73,94.709a.831.831,0,0,0,.452.119c-.688-.617-1.372-1.238-2.062-1.85a4.951,4.951,0,0,0-2.641-1.143A57.647,57.647,0,0,1,62.8,90.593c-2.791-.757-5.508-1.8-8.314-2.478a21.634,21.634,0,0,1-6.746-3.044,36.215,36.215,0,0,0-6.134-3.544,54.117,54.117,0,0,1-6.686-3.606,14.684,14.684,0,0,1-4.845-4.295,6.894,6.894,0,0,1-1.466-3.077,4.772,4.772,0,0,1,1.4-3.967,5.408,5.408,0,0,1,4.241-1.774,10.691,10.691,0,0,1,7.672,3.05,21.55,21.55,0,0,1,3.59,4.909,19.238,19.238,0,0,0,4.672,5.793,30.634,30.634,0,0,1,2.9,2.864c1.32,1.391,2.569,2.849,3.918,4.209a6.059,6.059,0,0,0,3.135,1.558q3.913.839,7.822,1.691a.834.834,0,0,0,.444.057c-.651-.466-1.268-.991-1.958-1.389A12.747,12.747,0,0,1,62.848,84.4a25.817,25.817,0,0,0-4.488-4.237,14.879,14.879,0,0,1-3.111-3.621c-.878-1.326-1.791-2.633-2.642-3.976-.614-.97-1.144-1.993-1.734-2.981-.214-.357-.492-.677-.74-1.016-.815-1.1-1.656-2.192-2.438-3.321a8.22,8.22,0,0,1-1.156-4.471,18.736,18.736,0,0,1,.124-3.183,7.3,7.3,0,0,1,1.466-3.685c1.114-1.4,2.532-1.951,4.641-1a8.594,8.594,0,0,1,4.283,4.643,22.355,22.355,0,0,1,1.582,6.723c.165,1.457.086,2.944.286,4.391a39.666,39.666,0,0,0,1.025,5.125,41.666,41.666,0,0,0,1.905,5.6,14.188,14.188,0,0,0,4.393,5.219c.937.755,1.941,1.424,2.909,2.141,1.359,1,2.713,2.014,4.061,3.014" transform="translate(369.472 965.007) rotate(45)" fill="#59b4f1" opacity="0.26" style="mix-blend-mode: hard-light;isolation: isolate"/>
      </g>
      <circle id="Elipse_11555" data-name="Elipse 11555" cx="3.417" cy="3.417" r="3.417" transform="translate(363.166 1063.809)" fill="#aed139"/>
      <g id="Grupo_1101942" data-name="Grupo 1101942" transform="translate(-75.057 -124.992)">
        <path id="Trazado_880159" data-name="Trazado 880159" d="M157.181,88.988c2.158-4.769,5.416,3.142,6.022,3s2.55-8.532,6.131-5.223-3.831,15.153-4.509,15.5-10.147-7.747-7.644-13.28" transform="translate(245.17 1092.174)" fill="#b4d448"/>
        <path id="Trazado_880160" data-name="Trazado 880160" d="M168.468,98.671q1.088,5.529,1.625,11.141a.122.122,0,0,1-.11.131.12.12,0,0,1-.129-.1c-.38-1.841-.66-3.7-.946-5.551-.256-1.859-.521-3.716-.679-5.59a.121.121,0,0,1,.239-.035" transform="translate(240.603 1087.161)"/>
      </g>
    </g>
  </g>
</svg>
