<svg xmlns="http://www.w3.org/2000/svg" xmlns:xlink="http://www.w3.org/1999/xlink" width="122.16" height="112.421" viewBox="0 0 122.16 112.421">
  <defs>
    <clipPath id="clip-path">
      <rect id="Rectángulo_402901" data-name="Rectángulo 402901" width="110.964" height="71.937" fill="none"/>
    </clipPath>
    <clipPath id="clip-path-3">
      <rect id="Rectángulo_402899" data-name="Rectángulo 402899" width="81.919" height="36.565" fill="none"/>
    </clipPath>
    <clipPath id="clip-path-4">
      <rect id="Rectángulo_402909" data-name="Rectángulo 402909" width="32.509" height="23.995" transform="translate(0 0)" fill="none"/>
    </clipPath>
  </defs>
  <g id="Grupo_1103385" data-name="Grupo 1103385" transform="translate(-1228.802 -102.48)">
    <g id="Grupo_1102215" data-name="Grupo 1102215" transform="translate(12818.891 12472.765)">
      <path id="Trazado_880142" data-name="Trazado 880142" d="M170.251,296.9h0a34.763,34.763,0,0,1-34.763-34.763V238.4a34.763,34.763,0,1,1,69.526,0v23.744A34.763,34.763,0,0,1,170.251,296.9" transform="translate(-11705.093 -12554.768)" fill="#fff"/>
      <g id="Grupo_1102198" data-name="Grupo 1102198" transform="translate(-11578.893 -12336.905)">
        <g id="Grupo_1102197" data-name="Grupo 1102197" clip-path="url(#clip-path)">
          <g id="Grupo_1102196" data-name="Grupo 1102196">
            <g id="Grupo_1102195" data-name="Grupo 1102195" clip-path="url(#clip-path)">
              <path id="Trazado_917547" data-name="Trazado 917547" d="M6.991,36.552s17.477,30.293,18.94,30.663S87.776,53.984,88.78,52.76s-.86-34.7-.86-34.7Z" transform="translate(-3.612 -9.33)" fill="#fd6f2f"/>
              <g id="Grupo_1102194" data-name="Grupo 1102194" transform="translate(3.379 8.729)" opacity="0.3" style="mix-blend-mode: multiply;isolation: isolate">
                <g id="Grupo_1102193" data-name="Grupo 1102193">
                  <g id="Grupo_1102192" data-name="Grupo 1102192" clip-path="url(#clip-path-3)">
                    <path id="Trazado_917548" data-name="Trazado 917548" d="M88.91,40c-.321-9.9-.991-21.942-.991-21.942L6.99,36.552s5.547,9.611,10.651,18.073C36.808,37.477,64.223,34.09,88.91,40" transform="translate(-6.99 -18.059)" fill="#fd6f2f"/>
                  </g>
                </g>
              </g>
              <path id="Trazado_917549" data-name="Trazado 917549" d="M20.245,96.5C32,83.272,52.62,102.618,40.22,115.266c-11.467,11.7-34.06-2.925-19.975-18.77" transform="translate(-8.144 -47.56)"/>
              <path id="Trazado_917550" data-name="Trazado 917550" d="M38.383,114.02c3.152-3.545,8.681,1.642,5.356,5.032-3.075,3.137-9.133-.784-5.356-5.032" transform="translate(-19.208 -58.291)" fill="#b5b5b5"/>
              <path id="Trazado_917551" data-name="Trazado 917551" d="M.132,28.964C4.633,27.565,83.295,9,84.647,8.755s2.962,4.654,1.607,5.022S4.675,34.109,3.2,34.23-.578,29.185.132,28.964" transform="translate(0 -4.518)" fill="#cb5926"/>
              <path id="Trazado_917552" data-name="Trazado 917552" d="M210.369,2.777c1.265-.327,7.836-6.08,9.143,0S212.164,6.654,211.43,6.9s-1.061-4.122-1.061-4.122" transform="translate(-108.682 0)" fill="#b4d448"/>
              <path id="Trazado_917553" data-name="Trazado 917553" d="M45.894,63.911s64.648-13.77,65.138-14.885-2.123-33.438-1.469-33.764S124.7,10.854,124.7,10.854V8.764s-17.349,4.169-18.118,5.66S108.419,46.608,107.6,47.1,45.028,61.184,45.028,61.184Z" transform="translate(-23.263 -4.528)" fill="#b5b5b5"/>
              <path id="Trazado_917554" data-name="Trazado 917554" d="M61.68,65.235s54.074,9.828,55.851,9.175,6.348-58.281,6.348-58.281H122.41s-5.226,55.471-5.877,56.125S61.876,63.56,61.876,63.56Z" transform="translate(-31.865 -8.333)" fill="#b5b5b5"/>
              <path id="Trazado_917555" data-name="Trazado 917555" d="M205.376,3.064c.429-.34,2.1-.8,2.431-.5s2.359,7.243,1.791,7.444-2.1.482-2.345.236S205,3.362,205.376,3.064" transform="translate(-106.078 -1.276)" fill="#8ba72e"/>
              <path id="Trazado_917556" data-name="Trazado 917556" d="M12.687,61.512l1.384,2.277,1.391,2.35,1.572,2.707,1.545,2.722,1.328,2.385L21.176,76.3a.106.106,0,0,1-.183.1L19.61,74.125l-1.391-2.35-1.572-2.707L15.1,66.346,13.772,63.96,12.5,61.616a.106.106,0,0,1,.183-.1" transform="translate(-6.453 -31.752)"/>
              <path id="Trazado_917557" data-name="Trazado 917557" d="M82.82,28.828,89.9,27.05l15.6-3.828L121.126,19.5l7.111-1.655a.106.106,0,0,1,.05.2l-7.082,1.778-15.6,3.828L89.982,27.379,82.87,29.033a.106.106,0,0,1-.05-.2" transform="translate(-42.746 -9.217)"/>
              <path id="Trazado_917558" data-name="Trazado 917558" d="M67.959,104.193l7.842-1.9L93.075,98.2l17.3-3.988,7.871-1.775a.106.106,0,0,1,.049.205l-7.843,1.9L93.176,98.636l-17.3,3.988L68.008,104.4a.106.106,0,0,1-.048-.206" transform="translate(-35.068 -47.754)"/>
              <path id="Trazado_917559" data-name="Trazado 917559" d="M37.293,94.285l.543-.353.289-.181c.114-.06.246-.116.384-.18a4.821,4.821,0,0,1,.954-.365l.56-.157.617-.084.323-.043.332-.005c.224,0,.455-.007.687.007a8.938,8.938,0,0,1,1.412.222,10.807,10.807,0,0,1,1.4.431,14.441,14.441,0,0,1,1.316.616c.431.209.815.479,1.2.71.369.26.734.5,1.053.762s.627.5.893.738.51.459.715.664.389.379.531.532l.444.479a.231.231,0,0,1-.313.339l-.005,0-.5-.4c-.317-.257-.778-.613-1.341-1.02-.277-.21-.588-.42-.915-.644s-.687-.434-1.045-.672c-.375-.207-.753-.441-1.157-.632a13.436,13.436,0,0,0-1.23-.557,10.342,10.342,0,0,0-1.273-.407,10.144,10.144,0,0,0-1.261-.241c-.206-.021-.41-.017-.61-.032L41,93.79l-.288.021-.553.036-.51.1a5.607,5.607,0,0,0-.872.227c-.129.041-.249.072-.363.113l-.309.144-.592.264a.232.232,0,0,1-.22-.406" transform="translate(-19.212 -48.002)" fill="#fff"/>
              <path id="Trazado_917560" data-name="Trazado 917560" d="M215.438,3.127a5.918,5.918,0,0,1,.7-.349,12.692,12.692,0,0,1,1.6-.554,12.954,12.954,0,0,1,1.657-.341,6.117,6.117,0,0,1,.778-.062.239.239,0,0,1,.123.444h0a6.212,6.212,0,0,1-.7.347,13.06,13.06,0,0,1-1.6.556,12.537,12.537,0,0,1-1.656.344,5.909,5.909,0,0,1-.779.059.24.24,0,0,1-.123-.444Z" transform="translate(-111.24 -0.941)" fill="#fff"/>
            </g>
          </g>
        </g>
      </g>
    </g>
    <g id="Grupo_1102217" data-name="Grupo 1102217" transform="matrix(0.819, -0.574, 0.574, 0.819, 1228.802, 121.126)">
      <g id="Grupo_1102216" data-name="Grupo 1102216" clip-path="url(#clip-path-4)">
        <path id="Trazado_917590" data-name="Trazado 917590" d="M.19,21.575C1.161,25.826,14.9,24.053,21,19.542S33.958,6,32.241,2.576,16.827-1.186,9.917,3.56-.936,16.634.19,21.575" fill="#495723"/>
        <path id="Trazado_917591" data-name="Trazado 917591" d="M4.356,17.9l.836-.542c.544-.329,1.268-.871,2.231-1.394.476-.269.993-.561,1.537-.87s1.142-.593,1.753-.9,1.241-.627,1.906-.9l2-.862,2.048-.737c.67-.257,1.351-.45,2.006-.644s1.288-.393,1.9-.527l1.724-.381a11.786,11.786,0,0,1,1.468-.266l1.139-.16.991-.139a.187.187,0,0,1,.065.369l-.012,0-.971.207c-.614.148-1.506.28-2.545.581-.522.137-1.088.285-1.685.443s-1.21.387-1.857.576-1.311.4-1.971.661l-2.009.752L12.928,14c-.661.257-1.282.576-1.894.861s-1.212.545-1.756.837l-1.549.8c-.965.483-1.75.949-2.308,1.245s-.874.481-.874.481a.186.186,0,0,1-.253-.074.188.188,0,0,1,.062-.248"/>
        <path id="Trazado_917592" data-name="Trazado 917592" d="M6.388,8.717s.165-.181.455-.5A15.89,15.89,0,0,1,8.081,6.94l.906-.8a10.8,10.8,0,0,1,1.063-.822c.383-.263.754-.575,1.182-.814L12.5,3.734c.441-.232.9-.434,1.336-.648a11.337,11.337,0,0,1,1.323-.558,17.178,17.178,0,0,1,2.432-.752,13.13,13.13,0,0,1,1.769-.318l.673-.1a.187.187,0,0,1,.073.366l-.019,0-.647.164c-.408.118-1.006.217-1.689.468l-1.11.362c-.393.132-.786.329-1.208.487a10.917,10.917,0,0,0-1.272.565c-.421.216-.858.42-1.28.652l-1.242.723c-.421.223-.785.519-1.162.767-.364.267-.75.484-1.064.751s-.631.495-.916.717c-.572.437-1.016.878-1.342,1.151l-.506.446a.187.187,0,0,1-.265-.017.189.189,0,0,1,0-.251"/>
      </g>
    </g>
  </g>
</svg>
