<svg xmlns="http://www.w3.org/2000/svg" xmlns:xlink="http://www.w3.org/1999/xlink" width="106.905" height="109.873" viewBox="0 0 106.905 109.873">
  <defs>
    <clipPath id="clip-path">
      <rect id="Rectángulo_402914" data-name="Rectángulo 402914" width="103.272" height="91.649" fill="none"/>
    </clipPath>
    <clipPath id="clip-path-2">
      <rect id="Rectángulo_402913" data-name="Rectángulo 402913" width="103.272" height="91.649" fill="#e1ef97"/>
    </clipPath>
    <clipPath id="clip-path-3">
      <rect id="Rectángulo_402912" data-name="Rectángulo 402912" width="34.627" height="48.673" fill="none"/>
    </clipPath>
    <clipPath id="clip-path-4">
      <rect id="Rectángulo_402909" data-name="Rectángulo 402909" width="32.509" height="23.995" transform="translate(0 0)" fill="none"/>
    </clipPath>
  </defs>
  <g id="Grupo_1103384" data-name="Grupo 1103384" transform="translate(-860.369 -448.301)">
    <g id="Grupo_1102227" data-name="Grupo 1102227" transform="translate(895.323 457.188)">
      <path id="Trazado_880142" data-name="Trazado 880142" d="M171.463,300.156h0a35.976,35.976,0,0,1-35.975-35.975V239.609a35.975,35.975,0,0,1,71.951,0v24.571a35.976,35.976,0,0,1-35.975,35.975" transform="translate(-135.488 -203.634)" fill="#fff"/>
    </g>
    <g id="Grupo_1102226" data-name="Grupo 1102226" transform="translate(860.369 466.524)">
      <g id="Grupo_1102225" data-name="Grupo 1102225" transform="translate(0 0)" clip-path="url(#clip-path)">
        <g id="Grupo_1102224" data-name="Grupo 1102224">
          <g id="Grupo_1102223" data-name="Grupo 1102223" clip-path="url(#clip-path-2)">
            <path id="Trazado_917594" data-name="Trazado 917594" d="M104.431,1.547c.179.6,3.118,6.7,2.989,7.936s-10.6,7.46-10.6,7.46l1.811,2.683s12.963-7.4,13.693-9.017S108.841.629,108.2.125s-4.013.627-3.774,1.421" transform="translate(-32.056 0)" fill="#b5b5b5"/>
            <path id="Trazado_917595" data-name="Trazado 917595" d="M113.395,15.227c.179.595,3.117,6.7,2.989,7.936s-10.6,7.461-10.6,7.461l1.81,2.682s12.963-7.4,13.694-9.016-3.48-9.982-4.114-10.484-4.013.625-3.775,1.421" transform="translate(-35.024 -4.53)" fill="#b5b5b5"/>
            <path id="Trazado_917596" data-name="Trazado 917596" d="M122.678,27.767c.181.6,3.119,6.7,2.989,7.936s-10.6,7.462-10.6,7.462l1.81,2.682s12.963-7.4,13.694-9.017-3.479-9.98-4.115-10.484-4.013.627-3.775,1.421" transform="translate(-38.098 -8.682)" fill="#b5b5b5"/>
            <path id="Trazado_917597" data-name="Trazado 917597" d="M131.239,43.032c.179.595,3.116,6.7,2.989,7.937s-10.605,7.46-10.605,7.46l1.811,2.682s12.963-7.4,13.693-9.016-3.48-9.981-4.115-10.485-4.013.627-3.773,1.422" transform="translate(-40.931 -13.736)" fill="#b5b5b5"/>
            <path id="Trazado_917598" data-name="Trazado 917598" d="M138.7,55.739c.181.6,3.121,6.7,2.989,7.936s-10.6,7.461-10.6,7.461l1.81,2.682s12.963-7.4,13.694-9.016-3.48-9.981-4.115-10.484-4.013.627-3.776,1.421" transform="translate(-43.402 -17.943)" fill="#b5b5b5"/>
            <path id="Trazado_917599" data-name="Trazado 917599" d="M90.127,18.486c1.548.162,29.11,44.16,28.882,45.137s-5.2,4.336-6.163,3.361-28.865-43.508-28.458-44.4,5.739-4.093,5.739-4.093" transform="translate(-27.94 -6.121)" fill="#b5b5b5"/>
            <g id="Grupo_1102222" data-name="Grupo 1102222" transform="translate(56.445 12.366)" opacity="0.3" style="mix-blend-mode: multiply;isolation: isolate">
              <g id="Grupo_1102221" data-name="Grupo 1102221">
                <g id="Grupo_1102220" data-name="Grupo 1102220" clip-path="url(#clip-path-3)">
                  <path id="Trazado_917600" data-name="Trazado 917600" d="M90.127,18.486c1.548.162,29.11,44.16,28.882,45.137s-5.2,4.336-6.163,3.361-28.865-43.508-28.458-44.4,5.739-4.093,5.739-4.093" transform="translate(-84.384 -18.487)" fill="#b5b5b5"/>
                </g>
              </g>
            </g>
            <path id="Trazado_917601" data-name="Trazado 917601" d="M63.922,73.427s23.37-16.368,27.25-19.334,8.253,1.053,3.11,4.883S67.849,77.521,67.849,77.521Z" transform="translate(-21.165 -17.57)" fill="#b5b5b5"/>
            <path id="Trazado_917602" data-name="Trazado 917602" d="M40.538,75.586c.886-.091,9.41,11.151,9.112,12.5s-39.7,28.658-40.893,28.594-9.739-11.93-8.664-13.6,38.59-27.292,40.444-27.485" transform="translate(0 -25.026)" fill="#a3ad73"/>
            <path id="Trazado_917603" data-name="Trazado 917603" d="M22.161,93.132C11.738,100.192.67,107.982.094,108.881c-1.076,1.674,7.469,13.541,8.664,13.6.47.025,6.845-4.182,14.427-9.379-.37-6.665-.616-13.3-1.023-19.974" transform="translate(0 -30.836)" fill="#e1ef97"/>
            <path id="Trazado_917604" data-name="Trazado 917604" d="M100.1,56.352l.651-.564c.2-.184.475-.383.776-.623s.664-.481,1.058-.746l.635-.382.708-.369a7.713,7.713,0,0,1,1.635-.577,3.931,3.931,0,0,1,1.9-.017,2.14,2.14,0,0,1,.906.495,1.841,1.841,0,0,1,.513.924,2.987,2.987,0,0,1-.328,1.957,5.885,5.885,0,0,1-1.1,1.516,9.217,9.217,0,0,1-1.313,1.122,13.836,13.836,0,0,1-1.308.807c-.417.227-.812.411-1.165.563s-.664.281-.926.366l-.819.284a.111.111,0,0,1-.142-.069.112.112,0,0,1,.063-.141l.006,0,.794-.319a18.374,18.374,0,0,0,2.01-1,13.381,13.381,0,0,0,1.248-.817,10.213,10.213,0,0,0,1.232-1.1,5.453,5.453,0,0,0,1-1.411,2.53,2.53,0,0,0,.278-1.652,1.391,1.391,0,0,0-.376-.694,1.67,1.67,0,0,0-.707-.389,3.487,3.487,0,0,0-1.679.008,8.279,8.279,0,0,0-1.558.515l-.693.336-.629.355c-.389.25-.76.466-1.064.688s-.581.4-.793.575l-.678.531a.112.112,0,0,1-.142-.173" transform="translate(-33.129 -17.537)"/>
            <path id="Trazado_917605" data-name="Trazado 917605" d="M39.411,84.448,36.093,86.57c-1.995,1.266-4.674,2.922-7.355,4.575l-3.959,2.4L21.311,95.61l-3.4,1.987a.119.119,0,0,1-.124-.2l0,0,3.321-2.116,3.423-2.138,3.937-2.425c2.69-1.639,5.382-3.273,7.415-4.476l3.4-1.992a.12.12,0,0,1,.124.205" transform="translate(-5.871 -27.888)"/>
            <path id="Trazado_917606" data-name="Trazado 917606" d="M3.42,119.616l.34.392c.213.252.534.6.882,1.048.721.883,1.617,2.09,2.54,3.281.46.593.91,1.2,1.365,1.732.227.267.428.544.642.783l.6.682c.36.433.7.75.924.992s.359.372.359.372l.007.007a.12.12,0,0,1-.166.173l-.393-.343A13.463,13.463,0,0,1,9.5,127.8c-.4-.41-.868-.881-1.318-1.431-.47-.536-.932-1.134-1.405-1.726l-1.322-1.782L4.333,121.3l-1.1-1.53a.12.12,0,0,1,.187-.149" transform="translate(-1.063 -39.591)"/>
            <path id="Trazado_917607" data-name="Trazado 917607" d="M88.112,26s.432.725,1.06,1.823,1.434,2.58,2.237,4.064l1.212,2.155,1.035,1.894c.6,1.114.981,1.866.981,1.866v0a.119.119,0,0,1-.052.161.121.121,0,0,1-.157-.042s-.452-.713-1.112-1.795l-1.11-1.858-1.247-2.145c-.789-1.491-1.571-2.985-2.135-4.118s-.926-1.895-.926-1.895A.12.12,0,0,1,88.112,26" transform="translate(-29.1 -8.588)"/>
            <path id="Trazado_917608" data-name="Trazado 917608" d="M62.49,92.976s-1.173.981-2.976,2.395c-.908.7-1.949,1.536-3.1,2.385l-3.6,2.674-3.7,2.55c-.591.406-1.162.8-1.724,1.142l-1.58.972c-.977.6-1.809,1.078-2.383,1.423l-.911.526a.262.262,0,0,1-.287-.438l.011-.008.847-.619c.546-.384,1.313-.951,2.255-1.6l1.517-1.046c.54-.367,1.081-.8,1.668-1.205l3.641-2.6L55.8,96.919c1.16-.835,2.27-1.581,3.207-2.24,1.886-1.3,3.173-2.126,3.173-2.126a.263.263,0,0,1,.31.423" transform="translate(-13.944 -30.63)" fill="#fff"/>
            <path id="Trazado_917609" data-name="Trazado 917609" d="M114.286,3.2a8.751,8.751,0,0,1,.517.874,18.8,18.8,0,0,1,.906,2.012,18.39,18.39,0,0,1,.479,2.215,9.1,9.1,0,0,1,.1,1.023.266.266,0,0,1-.5.135l-.015-.027a9.349,9.349,0,0,1-.42-.911c-.114-.274-.233-.6-.348-.942s-.22-.719-.337-1.093a18.782,18.782,0,0,1-.675-2.1,8.858,8.858,0,0,1-.2-1,.27.27,0,0,1,.49-.189" transform="translate(-37.677 -1.021)" fill="#fff"/>
            <path id="Trazado_917610" data-name="Trazado 917610" d="M121.5,64.831s.505.651,1.211,1.658,1.6,2.381,2.451,3.778c.45.678.908,1.348,1.318,1.991s.79,1.245,1.1,1.77c.626,1.051,1.015,1.777,1.015,1.777l.006.011a.263.263,0,0,1-.431.3s-.537-.624-1.3-1.6-1.736-2.306-2.662-3.668c-.853-1.4-1.665-2.819-2.24-3.906s-.921-1.835-.921-1.835a.264.264,0,0,1,.448-.272" transform="translate(-40.073 -21.432)" fill="#fff"/>
          </g>
        </g>
      </g>
    </g>
    <g id="Grupo_1102218" data-name="Grupo 1102218" transform="matrix(0.883, -0.469, 0.469, 0.883, 867.874, 463.563)">
      <g id="Grupo_1102216" data-name="Grupo 1102216" clip-path="url(#clip-path-4)">
        <path id="Trazado_917590" data-name="Trazado 917590" d="M.19,21.575C1.161,25.826,14.9,24.053,21,19.542S33.958,6,32.241,2.576,16.827-1.186,9.917,3.56-.936,16.634.19,21.575" fill="#495723"/>
        <path id="Trazado_917591" data-name="Trazado 917591" d="M4.356,17.9l.836-.542c.544-.329,1.268-.871,2.231-1.394.476-.269.993-.561,1.537-.87s1.142-.593,1.753-.9,1.241-.627,1.906-.9l2-.862,2.048-.737c.67-.257,1.351-.45,2.006-.644s1.288-.393,1.9-.527l1.724-.381a11.786,11.786,0,0,1,1.468-.266l1.139-.16.991-.139a.187.187,0,0,1,.065.369l-.012,0-.971.207c-.614.148-1.506.28-2.545.581-.522.137-1.088.285-1.685.443s-1.21.387-1.857.576-1.311.4-1.971.661l-2.009.752L12.928,14c-.661.257-1.282.576-1.894.861s-1.212.545-1.756.837l-1.549.8c-.965.483-1.75.949-2.308,1.245s-.874.481-.874.481a.186.186,0,0,1-.253-.074.188.188,0,0,1,.062-.248"/>
        <path id="Trazado_917592" data-name="Trazado 917592" d="M6.388,8.717s.165-.181.455-.5A15.89,15.89,0,0,1,8.081,6.94l.906-.8a10.8,10.8,0,0,1,1.063-.822c.383-.263.754-.575,1.182-.814L12.5,3.734c.441-.232.9-.434,1.336-.648a11.337,11.337,0,0,1,1.323-.558,17.178,17.178,0,0,1,2.432-.752,13.13,13.13,0,0,1,1.769-.318l.673-.1a.187.187,0,0,1,.073.366l-.019,0-.647.164c-.408.118-1.006.217-1.689.468l-1.11.362c-.393.132-.786.329-1.208.487a10.917,10.917,0,0,0-1.272.565c-.421.216-.858.42-1.28.652l-1.242.723c-.421.223-.785.519-1.162.767-.364.267-.75.484-1.064.751s-.631.495-.916.717c-.572.437-1.016.878-1.342,1.151l-.506.446a.187.187,0,0,1-.265-.017.189.189,0,0,1,0-.251"/>
      </g>
    </g>
  </g>
</svg>
