<svg xmlns="http://www.w3.org/2000/svg" xmlns:xlink="http://www.w3.org/1999/xlink" width="125.38" height="124.382" viewBox="0 0 125.38 124.382">
  <defs>
    <clipPath id="clip-path">
      <rect id="Rectángulo_402907" data-name="Rectángulo 402907" width="125.38" height="88.152" fill="none"/>
    </clipPath>
    <clipPath id="clip-path-3">
      <rect id="Rectángulo_402905" data-name="Rectángulo 402905" width="43.192" height="59.25" fill="none"/>
    </clipPath>
    <clipPath id="clip-path-4">
      <rect id="Rectángulo_402909" data-name="Rectángulo 402909" width="32.509" height="23.995" transform="translate(0 0)" fill="none"/>
    </clipPath>
  </defs>
  <g id="Grupo_1103385" data-name="Grupo 1103385" transform="translate(-1328.023 -355.385)">
    <g id="Grupo_1102214" data-name="Grupo 1102214" transform="translate(12667.932 12709.303)">
      <g id="Grupo_1101893" data-name="Grupo 1101893" transform="translate(-11321.979 -12334.05)">
        <path id="Trazado_880152" data-name="Trazado 880152" d="M216.369,105.245h0c12.515-16.739-1.1-40.32-21.854-37.851-8.238-19.208-35.468-19.208-43.707,0-20.753-2.469-34.369,21.112-21.854,37.851-12.515,16.739,1.1,40.32,21.854,37.851,8.238,19.208,35.468,19.208,43.707,0C215.268,145.565,228.883,121.984,216.369,105.245Z" transform="translate(-124.157 -52.988)" fill="#fff"/>
      </g>
      <g id="Grupo_1102212" data-name="Grupo 1102212" transform="translate(-11339.908 -12325.868)">
        <g id="Grupo_1102211" data-name="Grupo 1102211" clip-path="url(#clip-path)">
          <g id="Grupo_1102210" data-name="Grupo 1102210" transform="translate(0 0)">
            <g id="Grupo_1102209" data-name="Grupo 1102209" clip-path="url(#clip-path)">
              <path id="Trazado_917578" data-name="Trazado 917578" d="M44.136,62.508c4.294,1.2,31.369-42.893,29.761-46.293C71.43,10.993,4.164-4.291.259,1.155s37.557,59.58,43.877,61.353" transform="translate(0 0)" fill="#b5b5b5"/>
              <g id="Grupo_1102208" data-name="Grupo 1102208" transform="translate(30.774 3.282)" opacity="0.3" style="mix-blend-mode: multiply;isolation: isolate">
                <g id="Grupo_1102207" data-name="Grupo 1102207">
                  <g id="Grupo_1102206" data-name="Grupo 1102206" clip-path="url(#clip-path-3)">
                    <path id="Trazado_917579" data-name="Trazado 917579" d="M32.19,3.434A68.4,68.4,0,0,1,47.771,23.327c5,12.468-2.693,21.937-12.8,29.172,4.952,5.726,8.948,9.7,10.585,10.161,4.294,1.2,31.369-42.893,29.761-46.294C73.92,13.416,51.84,7.255,32.19,3.434" transform="translate(-32.19 -3.434)" fill="#b5b5b5"/>
                  </g>
                </g>
              </g>
              <path id="Trazado_917580" data-name="Trazado 917580" d="M82.988,59.623S50.866,38.65,45.223,35.291s-2.817-10.827,4.537-6.324S86.132,52.675,86.132,52.675Z" transform="translate(-1.858 -1.213)" fill="#b5b5b5"/>
              <path id="Trazado_917581" data-name="Trazado 917581" d="M79.109,65.959c-.557-1.059,9.207-17.324,11.033-17.624s38.181,22.79,38.7,24.312S118.829,90.773,116.2,90.268,80.278,68.179,79.109,65.959" transform="translate(-3.48 -2.127)" fill="#0089e4"/>
              <path id="Trazado_917582" data-name="Trazado 917582" d="M93.55,76.8c9.91,6.587,21.76,13.979,23.285,14.272,2.629.506,13.161-16.1,12.642-17.621-.17-.5-4.224-3.336-9.638-6.9-8.778,3.333-17.5,6.991-26.289,10.249" transform="translate(-4.116 -2.928)" fill="#07b"/>
              <path id="Trazado_917583" data-name="Trazado 917583" d="M54.288,41l-1.363-.647c-.436-.2-.949-.489-1.548-.8s-1.249-.7-1.954-1.139l-1.084-.709L47.216,36.9A20.224,20.224,0,0,1,44.964,34.9a10.99,10.99,0,0,1-1.947-2.609,4.938,4.938,0,0,1-.54-1.653,2.319,2.319,0,0,1,.445-1.8,2.6,2.6,0,0,1,1.6-.895,5.959,5.959,0,0,1,1.725-.056,13.482,13.482,0,0,1,3.142.819,28.836,28.836,0,0,1,5.017,2.65c1.384.911,2.479,1.75,3.234,2.349l1.179.949a.161.161,0,0,1-.2.254l0,0-1.208-.9c-.379-.293-.863-.614-1.411-.991s-1.187-.772-1.872-1.22c-.7-.419-1.458-.88-2.292-1.3a25.4,25.4,0,0,0-2.668-1.2,12.91,12.91,0,0,0-2.986-.758,3.125,3.125,0,0,0-2.726.72A2.619,2.619,0,0,0,43.606,32a10.368,10.368,0,0,0,1.819,2.466,22.829,22.829,0,0,0,2.153,1.971l1.082.824,1.049.722c.686.442,1.316.852,1.89,1.184s1.067.634,1.5.85l1.336.7a.161.161,0,0,1-.144.288" transform="translate(-1.867 -1.226)"/>
              <path id="Trazado_917584" data-name="Trazado 917584" d="M113.884,87.365l-4.857-2.472-2.344-1.215c-.839-.417-1.667-.967-2.55-1.488l-5.494-3.329-5.324-3.571c-1.708-1.127-3.252-2.249-4.587-3.194L84.3,68.908a.161.161,0,0,1-.037-.225.163.163,0,0,1,.222-.039l4.534,3.022c2.695,1.854,6.357,4.21,9.983,6.622l5.436,3.348c.878.519,1.685,1.086,2.514,1.524l2.316,1.268,4.762,2.653a.161.161,0,0,1-.151.285" transform="translate(-3.706 -3.019)"/>
              <path id="Trazado_917585" data-name="Trazado 917585" d="M66.185,34.81s.476-.975,1.223-2.422,1.776-3.354,2.816-5.257c1.014-1.914,2.03-3.828,2.822-5.247s1.34-2.355,1.34-2.355a.161.161,0,0,1,.22-.058.166.166,0,0,1,.064.21s-.456.987-1.164,2.453-1.693,3.4-2.687,5.33c-1.059,1.892-2.122,3.782-2.953,5.181s-1.4,2.322-1.4,2.322a.162.162,0,0,1-.223.053.166.166,0,0,1-.057-.21" transform="translate(-2.911 -0.856)"/>
              <path id="Trazado_917586" data-name="Trazado 917586" d="M82.855,52.986s-.816-.462-2.023-1.182-2.791-1.718-4.37-2.723c-1.567-1.024-3.13-2.053-4.283-2.855s-1.912-1.352-1.912-1.352a.161.161,0,0,1-.037-.226.163.163,0,0,1,.21-.046s.815.464,2.021,1.184,2.791,1.718,4.371,2.721c1.567,1.024,3.132,2.052,4.285,2.854s1.912,1.354,1.912,1.354a.161.161,0,0,1-.174.271" transform="translate(-3.089 -1.962)"/>
              <path id="Trazado_917587" data-name="Trazado 917587" d="M2.939,2.64l2.008.14c1.276.109,3.1.216,5.287.431s4.74.418,7.466.754c2.729.3,5.635.706,8.541,1.1l4.317.722c1.426.222,2.82.511,4.171.772s2.657.511,3.881.818l3.456.837c1.075.241,2.045.52,2.9.783l2.222.657,1.929.588a.353.353,0,0,1-.178.682l-.016,0-1.96-.438c-1.249-.27-3.009-.74-5.158-1.152l-3.458-.7c-1.224-.264-2.536-.439-3.877-.7-1.344-.244-2.73-.513-4.151-.717l-4.3-.665c-2.889-.41-5.772-.859-8.491-1.189l-7.421-.991L4.853,3.634,2.862,3.341a.353.353,0,0,1,.076-.7" transform="translate(-0.113 -0.116)" fill="#fff"/>
              <path id="Trazado_917588" data-name="Trazado 917588" d="M82.982,62.917s.42-.768,1.116-1.871,1.684-2.528,2.722-3.915c1.137-1.332,2.338-2.614,3.267-3.543s1.591-1.5,1.591-1.5a.354.354,0,0,1,.532.458l-.013.02s-.473.736-1.235,1.78c-.382.521-.84,1.117-1.342,1.745s-1.054,1.28-1.6,1.94c-1.038,1.387-2.128,2.735-2.988,3.715s-1.481,1.6-1.481,1.6a.356.356,0,0,1-.564-.423" transform="translate(-3.649 -2.288)" fill="#fff"/>
            </g>
          </g>
        </g>
      </g>
    </g>
    <g id="Grupo_1102219" data-name="Grupo 1102219" transform="translate(1427.76 355.385) rotate(64)">
      <g id="Grupo_1102216" data-name="Grupo 1102216" clip-path="url(#clip-path-4)">
        <path id="Trazado_917590" data-name="Trazado 917590" d="M.19,21.575C1.161,25.826,14.9,24.053,21,19.542S33.958,6,32.241,2.576,16.827-1.186,9.917,3.56-.936,16.634.19,21.575" fill="#495723"/>
        <path id="Trazado_917591" data-name="Trazado 917591" d="M4.356,17.9l.836-.542c.544-.329,1.268-.871,2.231-1.394.476-.269.993-.561,1.537-.87s1.142-.593,1.753-.9,1.241-.627,1.906-.9l2-.862,2.048-.737c.67-.257,1.351-.45,2.006-.644s1.288-.393,1.9-.527l1.724-.381a11.786,11.786,0,0,1,1.468-.266l1.139-.16.991-.139a.187.187,0,0,1,.065.369l-.012,0-.971.207c-.614.148-1.506.28-2.545.581-.522.137-1.088.285-1.685.443s-1.21.387-1.857.576-1.311.4-1.971.661l-2.009.752L12.928,14c-.661.257-1.282.576-1.894.861s-1.212.545-1.756.837l-1.549.8c-.965.483-1.75.949-2.308,1.245s-.874.481-.874.481a.186.186,0,0,1-.253-.074.188.188,0,0,1,.062-.248"/>
        <path id="Trazado_917592" data-name="Trazado 917592" d="M6.388,8.717s.165-.181.455-.5A15.89,15.89,0,0,1,8.081,6.94l.906-.8a10.8,10.8,0,0,1,1.063-.822c.383-.263.754-.575,1.182-.814L12.5,3.734c.441-.232.9-.434,1.336-.648a11.337,11.337,0,0,1,1.323-.558,17.178,17.178,0,0,1,2.432-.752,13.13,13.13,0,0,1,1.769-.318l.673-.1a.187.187,0,0,1,.073.366l-.019,0-.647.164c-.408.118-1.006.217-1.689.468l-1.11.362c-.393.132-.786.329-1.208.487a10.917,10.917,0,0,0-1.272.565c-.421.216-.858.42-1.28.652l-1.242.723c-.421.223-.785.519-1.162.767-.364.267-.75.484-1.064.751s-.631.495-.916.717c-.572.437-1.016.878-1.342,1.151l-.506.446a.187.187,0,0,1-.265-.017.189.189,0,0,1,0-.251"/>
      </g>
    </g>
  </g>
</svg>
