<svg xmlns="http://www.w3.org/2000/svg" xmlns:xlink="http://www.w3.org/1999/xlink" width="73.225" height="72.688" viewBox="0 0 73.225 72.688">
  <defs>
    <filter id="Trazado_880157" x="0" y="0" width="73.225" height="72.688" filterUnits="userSpaceOnUse">
      <feOffset dy="3" input="SourceAlpha"/>
      <feGaussianBlur stdDeviation="3" result="blur"/>
      <feFlood flood-opacity="0.161"/>
      <feComposite operator="in" in2="blur"/>
      <feComposite in="SourceGraphic"/>
    </filter>
    <clipPath id="clip-path">
      <rect id="Rectángulo_402497" data-name="Rectángulo 402497" width="55.114" height="37.484" fill="#f6faea"/>
    </clipPath>
  </defs>
  <g id="Grupo_1101939" data-name="Grupo 1101939" transform="translate(-175.351 -879.265)">
    <g id="Grupo_1101938" data-name="Grupo 1101938" transform="translate(184.351 885.265)">
      <g transform="matrix(1, 0, 0, 1, -9, -6)" filter="url(#Trazado_880157)">
        <path id="Trazado_880157-2" data-name="Trazado 880157" d="M136.934,100.474c-.041-21.126,6.831-28.62,24.546-31.235S191.4,76.522,192.086,93.4s-3.092,28.372-25.658,30c-18.047,1.3-29.467-8.808-29.494-22.922" transform="translate(-127.93 -62.82)" fill="#aed139"/>
      </g>
      <path id="Trazado_880158" data-name="Trazado 880158" d="M142.232,100.181c-.034-17.407,5.628-23.58,20.224-25.735s24.651,6,25.213,19.9-2.547,23.374-21.139,24.717c-14.866,1.072-24.276-7.258-24.3-18.886" transform="translate(-137.389 -69.276)" fill="#f6faea"/>
      <path id="Trazado_880159" data-name="Trazado 880159" d="M157.4,90.543c3.278-7.245,8.228,4.773,9.148,4.554s3.873-12.96,9.313-7.934-5.819,23.019-6.85,23.553S153.6,98.948,157.4,90.543" transform="translate(-138.637 -70.297)" fill="#b4d448"/>
      <path id="Trazado_880160" data-name="Trazado 880160" d="M168.593,98.72q1.652,8.4,2.469,16.924a.185.185,0,0,1-.167.2.183.183,0,0,1-.2-.146c-.578-2.8-1-5.615-1.437-8.433-.389-2.824-.792-5.646-1.032-8.491a.184.184,0,0,1,.363-.053" transform="translate(-139.621 -71.378)"/>
      <g id="Grupo_1101886" data-name="Grupo 1101886" transform="translate(0 17.203)" style="mix-blend-mode: multiply;isolation: isolate">
        <g id="Grupo_1101885" data-name="Grupo 1101885" transform="translate(0 0)">
          <g id="Grupo_1101884" data-name="Grupo 1101884" clip-path="url(#clip-path)">
            <path id="Trazado_880161" data-name="Trazado 880161" d="M138.561,87.642a53.142,53.142,0,0,0-1.627,14.449c.027,14.114,11.448,24.226,29.494,22.923,19.257-1.389,24.825-9.97,25.621-22.944-18.89-.213-37.813-3.914-53.488-14.427" transform="translate(-136.934 -87.642)" fill="#f6faea"/>
          </g>
        </g>
      </g>
    </g>
  </g>
</svg>
